<?xml version="1.0" standalone="no"?>
<!DOCTYPE svg PUBLIC "-//W3C//DTD SVG 20010904//EN"
 "http://www.w3.org/TR/2001/REC-SVG-20010904/DTD/svg10.dtd">
<svg version="1.0" xmlns="http://www.w3.org/2000/svg"
 width="512.000000pt" height="512.000000pt" viewBox="0 0 512.000000 512.000000"
 preserveAspectRatio="xMidYMid meet">

<g transform="translate(0.000000,512.000000) scale(0.100000,-0.100000)"
fill="#000000" stroke="none">
<path d="M1957 5109 c-92 -22 -184 -96 -225 -180 -38 -79 -44 -143 -40 -493 3
-297 5 -336 22 -376 43 -102 126 -180 227 -211 53 -16 93 -19 300 -19 l239 0
0 -175 0 -174 -452 -3 c-450 -3 -453 -3 -500 -26 -62 -31 -119 -87 -149 -148
-19 -39 -25 -69 -27 -141 l-4 -93 -196 0 c-226 0 -281 -11 -358 -69 -34 -25
-59 -56 -82 -101 l-33 -64 3 -335 c3 -307 5 -339 22 -371 38 -71 77 -109 144
-142 l66 -33 218 -3 218 -4 0 -189 0 -189 -235 0 c-211 0 -240 -2 -289 -20
-72 -28 -139 -88 -173 -158 -26 -53 -28 -67 -32 -204 l-3 -148 -190 0 c-113 0
-206 -5 -228 -11 -59 -18 -130 -78 -164 -139 l-31 -55 -3 -288 c-4 -352 0
-370 87 -458 90 -90 83 -89 613 -89 415 0 451 1 498 19 69 26 121 71 156 133
l29 53 3 216 3 216 -27 22 c-35 28 -69 27 -99 -4 -25 -24 -25 -26 -25 -213 0
-180 -1 -191 -23 -223 -47 -70 -41 -70 -527 -67 -406 3 -437 4 -466 22 -67 40
-69 51 -69 353 0 259 1 273 21 300 46 63 44 63 531 63 l441 0 46 -35 c57 -43
96 -46 125 -9 33 42 27 72 -23 119 -68 66 -108 75 -333 75 l-193 0 0 123 c0
147 18 197 85 234 l40 23 793 0 792 0 0 -190 0 -190 -197 0 c-187 0 -201 -2
-248 -24 -63 -29 -126 -97 -151 -162 -17 -44 -19 -78 -19 -339 0 -274 1 -293
21 -336 30 -63 79 -116 138 -147 l51 -27 485 0 485 0 51 27 c59 31 108 84 138
147 20 43 21 62 21 336 0 261 -2 295 -19 339 -25 65 -88 133 -151 162 -47 22
-61 24 -247 24 l-198 0 0 190 0 190 793 0 792 0 40 -23 c67 -37 85 -87 85
-234 l0 -123 -193 0 c-234 0 -266 -8 -343 -85 -83 -82 -86 -99 -82 -452 l3
-298 29 -53 c35 -62 87 -107 156 -133 47 -18 83 -19 498 -19 530 0 523 -1 613
89 87 88 91 106 87 458 l-3 288 -31 55 c-34 61 -105 121 -164 139 -22 6 -115
11 -228 11 l-190 0 -4 148 c-5 173 -18 213 -95 290 -84 84 -120 92 -398 92
l-235 0 0 190 0 190 193 0 c219 0 282 11 353 62 51 37 100 104 115 160 6 24 9
160 7 361 -3 293 -5 325 -22 357 -38 71 -77 109 -144 142 l-66 33 -217 3 -217
3 -4 92 c-2 71 -8 103 -26 140 -34 68 -102 132 -167 156 -53 20 -75 21 -495
21 l-440 0 0 175 0 175 239 0 c211 0 246 2 302 20 102 32 167 91 217 197 l27
58 3 331 c4 348 -2 414 -39 491 -30 62 -101 130 -167 161 -50 23 -72 27 -187
30 -118 4 -132 2 -155 -16 -33 -27 -34 -87 -1 -113 19 -16 41 -19 127 -19 115
0 159 -12 207 -58 62 -58 62 -58 65 -400 4 -373 -1 -407 -62 -468 -26 -26 -57
-46 -83 -53 -30 -8 -205 -11 -590 -9 -525 3 -550 4 -587 23 -22 11 -54 37 -70
58 l-31 39 -3 351 c-2 229 1 365 7 388 14 46 77 104 128 118 23 7 162 11 354
11 l316 0 21 23 c31 33 29 80 -4 106 -26 20 -37 21 -353 20 -179 -1 -343 -5
-364 -10z m1584 -1802 c59 -40 79 -80 79 -163 l0 -72 -217 -4 c-197 -3 -222
-5 -264 -24 -67 -31 -124 -87 -156 -152 l-28 -57 0 -325 0 -325 28 -57 c31
-64 89 -120 157 -151 40 -19 68 -21 263 -25 l217 -4 0 -189 0 -189 -1060 0
-1060 0 0 189 0 189 218 4 c181 3 224 7 257 22 91 41 151 111 180 209 14 48
16 101 13 354 l-3 298 -28 57 c-32 65 -89 121 -156 152 -42 19 -67 21 -263 24
l-218 4 0 72 c0 83 20 123 79 163 l34 23 947 0 947 0 34 -23z m669 -413 c19
-11 45 -35 57 -54 23 -32 23 -38 23 -330 0 -292 0 -298 -23 -330 -12 -19 -38
-43 -57 -54 -34 -20 -49 -21 -510 -21 -461 0 -476 1 -510 21 -19 11 -45 35
-57 54 -23 32 -23 38 -23 329 0 276 1 298 20 328 28 46 66 67 135 74 33 4 251
6 485 5 410 -1 426 -2 460 -22z m-1173 -2024 c67 -41 68 -45 68 -345 0 -252
-1 -272 -20 -304 -11 -18 -36 -42 -55 -52 -32 -18 -64 -19 -464 -19 -408 0
-432 1 -471 20 -74 36 -75 42 -75 350 0 300 2 313 63 350 30 19 53 20 477 20
423 0 447 -1 477 -20z m1860 0 c67 -41 68 -44 68 -350 0 -397 42 -365 -474
-365 l-384 0 -21 40 c-19 37 -21 59 -24 295 -4 281 -1 320 28 368 l20 32 377
0 c357 0 380 -1 410 -20z"/>
</g>
</svg>
