<?xml version="1.0" standalone="no"?>
<!DOCTYPE svg PUBLIC "-//W3C//DTD SVG 20010904//EN"
 "http://www.w3.org/TR/2001/REC-SVG-20010904/DTD/svg10.dtd">
<svg version="1.0" xmlns="http://www.w3.org/2000/svg"
 width="512.000000pt" height="512.000000pt" viewBox="0 0 512.000000 512.000000"
 preserveAspectRatio="xMidYMid meet">

<g transform="translate(0.000000,512.000000) scale(0.100000,-0.100000)"
fill="#000000" stroke="none">
<path d="M745 5015 l-25 -24 0 -295 0 -294 -167 -4 c-164 -3 -169 -4 -235 -35
-93 -44 -151 -100 -196 -191 l-37 -76 0 -1376 0 -1376 37 -76 c45 -91 103
-147 196 -191 l67 -32 632 -3 631 -3 56 -59 c180 -196 180 -485 -1 -680 l-55
-60 -384 0 -384 0 0 -80 0 -80 1680 0 1680 0 0 80 0 80 -384 0 -384 0 -55 60
c-181 195 -181 484 -1 680 l56 59 632 3 632 3 76 37 c91 45 147 103 191 196
l32 67 0 1375 0 1375 -32 67 c-44 93 -100 151 -191 196 l-76 37 -168 4 -168 3
0 294 0 295 -25 24 -24 25 -1791 0 -1791 0 -24 -25z m3495 -1255 l0 -1120
-1680 0 -1680 0 0 1120 0 1120 1680 0 1680 0 0 -1120z m-3520 -375 l0 -856 25
-24 24 -25 1791 0 1791 0 24 25 25 24 0 856 0 857 153 -4 c132 -3 157 -6 192
-25 47 -25 85 -64 111 -113 18 -33 19 -84 22 -1147 l2 -1113 -2320 0 -2320 0
2 1113 c3 1063 4 1114 22 1147 35 66 87 110 156 131 14 4 87 8 163 8 l137 1 0
-855z m4159 -1853 c-4 -135 -6 -152 -30 -197 -32 -62 -93 -110 -159 -124 -72
-15 -4188 -15 -4260 0 -66 14 -127 62 -159 124 -24 45 -26 62 -30 197 l-3 148
2322 0 2322 0 -3 -148z"/>
<path d="M1065 4695 l-25 -24 0 -256 0 -255 80 0 80 0 0 200 0 200 200 0 200
0 0 80 0 80 -255 0 -256 0 -24 -25z"/>
<path d="M3520 4640 l0 -80 200 0 200 0 0 -200 0 -200 80 0 80 0 0 255 0 256
-25 24 -24 25 -256 0 -255 0 0 -80z"/>
<path d="M2370 4389 c-396 -51 -725 -219 -1017 -522 -98 -101 -98 -113 0 -214
261 -270 543 -429 897 -504 154 -33 456 -34 618 -1 155 31 275 72 417 143 159
79 283 169 432 314 165 160 165 150 0 310 -230 224 -451 353 -737 430 -183 49
-432 67 -610 44z m320 -171 c178 -53 311 -207 340 -390 31 -199 -80 -407 -262
-493 -293 -139 -628 38 -678 358 -22 140 32 300 134 403 118 117 311 168 466
122z m-681 -135 c-63 -108 -84 -188 -84 -323 0 -135 21 -215 84 -322 l39 -66
-81 34 c-149 64 -332 190 -447 308 l-44 46 49 51 c64 65 190 164 280 219 52
33 226 119 242 120 1 0 -16 -30 -38 -67z m1171 20 c134 -61 312 -186 415 -292
l49 -51 -49 -51 c-127 -130 -334 -266 -503 -330 l-24 -9 22 32 c145 218 145
498 0 716 l-22 32 24 -9 c13 -5 53 -22 88 -38z"/>
<path d="M2459 4067 c-84 -32 -148 -88 -191 -170 -19 -35 -23 -58 -23 -137 0
-86 3 -100 29 -148 34 -60 85 -111 148 -144 36 -19 58 -23 138 -23 80 0 102 4
138 23 63 33 114 84 148 144 26 48 29 62 29 148 0 106 -15 147 -80 219 -57 63
-127 94 -220 98 -50 2 -93 -2 -116 -10z m164 -161 c103 -43 128 -177 48 -257
-112 -113 -296 -12 -267 146 18 94 128 150 219 111z"/>
<path d="M1040 3105 l0 -256 25 -24 24 -25 256 0 255 0 0 80 0 80 -200 0 -200
0 0 200 0 200 -80 0 -80 0 0 -255z"/>
<path d="M3920 3160 l0 -200 -200 0 -200 0 0 -80 0 -80 255 0 256 0 24 25 25
24 0 256 0 255 -80 0 -80 0 0 -200z"/>
<path d="M4560 1440 l0 -80 80 0 80 0 0 80 0 80 -80 0 -80 0 0 -80z"/>
</g>
</svg>
