<?xml version="1.0" standalone="no"?>
<!DOCTYPE svg PUBLIC "-//W3C//DTD SVG 20010904//EN"
 "http://www.w3.org/TR/2001/REC-SVG-20010904/DTD/svg10.dtd">
<svg version="1.0" xmlns="http://www.w3.org/2000/svg"
 width="512.000000pt" height="512.000000pt" viewBox="0 0 512.000000 512.000000"
 preserveAspectRatio="xMidYMid meet">

<g transform="translate(0.000000,512.000000) scale(0.100000,-0.100000)"
fill="#000000" stroke="none">
<path d="M393 5100 c-44 -19 -79 -65 -138 -178 -27 -52 -27 -55 -12 -88 18
-36 50 -50 92 -40 18 5 38 29 71 86 25 44 49 82 53 85 5 2 15 -3 23 -13 23
-26 298 -507 298 -520 0 -8 -28 -12 -91 -12 -87 0 -92 -1 -120 -29 l-29 -30 2
-1885 3 -1885 23 -23 23 -23 1885 -3 1885 -2 30 29 c28 28 29 33 29 120 0 63
4 91 12 91 15 0 514 -288 528 -305 14 -17 29 -7 -279 -184 -134 -77 -248 -138
-253 -135 -4 3 -8 46 -8 95 0 82 -2 92 -25 114 l-24 25 -599 0 -599 0 -21 -23
c-29 -31 -29 -77 1 -105 23 -22 25 -22 568 -24 l544 -3 6 -67 c4 -51 12 -75
32 -101 33 -43 101 -72 155 -64 59 7 600 323 629 366 28 41 37 89 28 139 -11
57 -70 104 -285 227 -347 198 -340 195 -396 195 -96 0 -164 -71 -164 -171 l0
-59 -1785 0 -1785 0 0 1785 0 1785 59 0 c101 0 171 68 171 165 0 49 -9 68
-154 321 -85 147 -166 283 -181 302 -50 62 -125 78 -202 42z"/>
<path d="M87 4626 c-36 -39 -87 -148 -87 -186 1 -50 32 -113 70 -140 24 -17
53 -25 99 -29 l66 -6 5 -1935 c5 -1777 6 -1937 22 -1965 24 -45 68 -85 113
-106 38 -18 99 -19 1276 -19 973 0 1239 3 1252 13 24 17 37 69 24 93 -25 45
21 43 -1265 44 l-1223 0 -24 25 -25 24 0 1966 0 1966 -25 24 c-22 23 -32 25
-113 25 -49 0 -92 3 -95 7 -4 3 9 34 28 69 19 34 35 74 35 88 0 62 -89 90
-133 42z"/>
<path d="M4131 4554 c-394 -107 -400 -109 -409 -202 -5 -59 11 -92 78 -157
l40 -39 -1489 -1491 c-1588 -1589 -1511 -1507 -1511 -1600 0 -119 106 -225
225 -225 93 0 35 -53 1268 1178 637 636 1160 1167 1163 1178 7 26 -19 79 -41
88 -9 3 -26 6 -38 6 -16 0 -354 -332 -1167 -1145 -919 -918 -1151 -1146 -1177
-1151 -26 -5 -37 -1 -58 21 -22 21 -26 32 -21 58 5 26 301 327 1516 1542 1730
1730 1555 1530 1444 1646 -45 46 -62 70 -53 73 39 14 583 155 586 153 2 -3
-106 -418 -143 -546 l-15 -53 -69 66 c-108 104 -86 115 -397 -196 -162 -162
-264 -273 -268 -289 -9 -38 31 -82 74 -82 29 0 57 24 260 227 l227 226 39 -40
c65 -67 98 -83 157 -78 93 9 95 14 203 417 52 193 95 367 95 384 0 70 -64 128
-137 126 -21 -1 -193 -43 -382 -95z"/>
<path d="M3095 4386 c-93 -43 -147 -128 -148 -233 -2 -153 135 -277 286 -260
64 8 144 53 179 101 128 177 9 416 -207 416 -42 0 -75 -7 -110 -24z m188 -166
c31 -35 35 -75 12 -120 -19 -37 -43 -50 -90 -50 -47 0 -71 13 -90 50 -21 41
-19 83 6 114 44 55 115 58 162 6z"/>
<path d="M2345 4306 c-94 -44 -144 -126 -145 -234 0 -75 15 -116 66 -172 56
-62 105 -84 189 -84 111 -1 186 47 239 151 26 53 30 113 11 179 -13 47 -27 69
-68 109 -81 79 -192 98 -292 51z m181 -160 c88 -88 -5 -217 -120 -165 -58 27
-72 122 -23 166 49 45 98 44 143 -1z"/>
<path d="M1656 3574 c-94 -30 -176 -143 -176 -244 0 -65 31 -134 83 -185 167
-163 436 -50 437 183 0 75 -15 116 -66 172 -71 79 -176 107 -278 74z m144
-157 c49 -38 61 -87 35 -137 -34 -65 -110 -77 -161 -26 -28 28 -34 42 -34 76
0 59 41 100 102 100 24 0 50 -6 58 -13z"/>
<path d="M2480 3575 c-57 -18 -124 -74 -153 -129 -29 -56 -31 -174 -3 -230 47
-93 131 -146 236 -146 105 0 189 53 236 146 28 56 26 174 -3 230 -30 57 -97
111 -157 129 -60 18 -97 18 -156 0z m142 -165 c39 -30 52 -71 38 -115 -13 -40
-59 -75 -98 -75 -69 0 -123 72 -102 136 23 69 108 97 162 54z"/>
<path d="M4134 3580 c-111 -34 -190 -141 -188 -254 1 -72 19 -118 65 -171 99
-113 289 -113 387 0 110 125 79 316 -66 397 -57 33 -143 45 -198 28z m132
-168 c52 -42 58 -106 15 -154 -25 -28 -36 -33 -76 -33 -40 0 -51 5 -76 33 -18
21 -29 43 -29 63 0 36 23 84 47 98 28 16 96 12 119 -7z"/>
<path d="M1912 3032 c-187 -67 -236 -306 -90 -437 54 -49 101 -67 173 -67 74
0 121 18 179 72 54 50 81 113 80 190 -1 175 -178 300 -342 242z m137 -156 c31
-17 51 -54 51 -97 0 -46 -56 -99 -105 -99 -29 0 -45 8 -71 34 -47 47 -47 95 0
142 38 38 77 44 125 20z"/>
<path d="M3723 3001 c-48 -12 -120 -58 -147 -94 -100 -131 -57 -321 88 -392
176 -86 375 36 376 230 0 103 -64 203 -155 241 -42 17 -122 25 -162 15z m127
-180 c36 -36 46 -73 30 -112 -28 -66 -95 -87 -157 -49 -37 22 -54 69 -42 115
21 75 115 101 169 46z"/>
<path d="M1332 2862 c-105 -38 -172 -132 -172 -243 0 -151 107 -260 256 -261
116 -1 217 75 249 187 59 201 -136 387 -333 317z m157 -173 c68 -68 19 -179
-79 -179 -23 0 -42 10 -66 34 -47 47 -47 95 0 142 47 47 101 48 145 3z"/>
<path d="M3115 2584 c-141 -50 -210 -226 -142 -361 43 -84 113 -132 206 -140
111 -10 203 39 256 137 92 172 -38 383 -234 379 -25 0 -64 -7 -86 -15z m129
-148 c71 -30 90 -114 37 -166 -36 -36 -73 -46 -112 -30 -88 37 -93 150 -9 192
42 22 42 22 84 4z"/>
<path d="M3692 2297 c-45 -14 -118 -80 -145 -131 -17 -32 -22 -58 -22 -116 0
-83 15 -121 69 -178 53 -57 101 -77 186 -77 85 0 133 20 187 77 160 167 40
442 -191 437 -28 -1 -66 -6 -84 -12z m139 -153 c37 -18 63 -74 54 -114 -8 -37
-48 -76 -83 -83 -115 -22 -173 145 -68 197 40 20 60 20 97 0z"/>
<path d="M987 2119 c-121 -29 -201 -131 -201 -254 0 -237 290 -349 449 -173
50 54 66 98 66 175 0 79 -25 136 -83 188 -66 60 -152 84 -231 64z m129 -183
c26 -26 34 -42 34 -71 0 -49 -53 -105 -99 -105 -65 0 -111 45 -111 107 1 60
46 102 109 103 25 0 42 -9 67 -34z"/>
<path d="M2842 1957 c-44 -14 -118 -80 -142 -127 -29 -57 -35 -128 -16 -195
44 -150 224 -227 364 -156 51 26 119 103 132 150 49 177 -70 342 -245 340 -33
-1 -75 -6 -93 -12z m138 -152 c55 -28 75 -99 43 -145 -27 -40 -45 -49 -91 -50
-87 0 -134 96 -81 164 36 46 80 56 129 31z"/>
<path d="M2265 1781 c-191 -47 -265 -283 -134 -426 56 -61 112 -86 192 -86
107 0 204 63 244 160 22 51 20 148 -4 202 -49 110 -183 178 -298 150z m131
-185 c26 -26 34 -42 34 -71 0 -52 -53 -105 -105 -105 -49 0 -105 53 -105 100
0 64 43 109 104 110 30 0 45 -7 72 -34z"/>
</g>
</svg>
