<?xml version="1.0" standalone="no"?>
<!DOCTYPE svg PUBLIC "-//W3C//DTD SVG 20010904//EN"
 "http://www.w3.org/TR/2001/REC-SVG-20010904/DTD/svg10.dtd">
<svg version="1.0" xmlns="http://www.w3.org/2000/svg"
 width="512.000000pt" height="512.000000pt" viewBox="0 0 512.000000 512.000000"
 preserveAspectRatio="xMidYMid meet">

<g transform="translate(0.000000,512.000000) scale(0.100000,-0.100000)"
fill="#000000" stroke="none">
<path d="M1223 4457 l-503 -502 2 -1746 3 -1745 37 -76 c45 -91 103 -147 196
-191 l67 -32 1535 0 1535 0 67 32 c93 44 151 100 196 191 l37 76 0 2095 0
2096 -32 67 c-44 93 -100 151 -191 196 l-76 37 -1185 3 -1185 2 -503 -503z
m2846 327 c37 -10 66 -29 96 -59 81 -80 75 54 75 -1769 l0 -1621 -210 210
c-116 116 -206 211 -200 213 6 2 10 39 10 83 l0 79 -93 0 -92 0 -80 80 -80 80
173 0 172 0 0 80 0 80 -146 0 c-123 0 -145 2 -141 14 6 15 20 68 31 119 l6 27
125 0 125 0 0 80 0 80 -120 0 -120 0 0 43 c0 23 -3 59 -6 80 l-7 37 127 0 126
0 0 80 0 80 -143 0 -144 0 -29 72 c-16 40 -30 76 -32 80 -2 5 75 8 172 8 l176
0 0 80 0 80 -226 0 -226 0 -76 80 -77 80 303 0 302 0 0 80 0 80 -433 0 -433 0
-74 25 c-217 74 -463 74 -680 0 l-74 -25 -433 0 -433 0 0 -80 0 -80 301 0 301
0 -74 -80 -73 -79 -227 -1 -228 0 0 -80 0 -80 176 0 c137 0 175 -3 171 -12 -4
-7 -18 -43 -33 -80 l-28 -68 -143 0 -143 0 0 -80 0 -80 126 0 c126 0 126 0
120 -22 -3 -13 -6 -49 -6 -80 l0 -58 -120 0 -120 0 0 -80 0 -80 123 0 124 0
19 -80 20 -80 -143 0 -143 0 0 -80 0 -80 178 0 177 0 27 -48 c15 -26 37 -62
48 -79 l22 -33 -226 0 -226 0 0 -80 0 -80 305 0 305 0 52 -40 c29 -22 87 -58
128 -80 l75 -39 -432 -1 -433 0 0 -80 0 -80 720 0 720 0 0 44 0 44 73 16 c39
9 110 32 157 51 l85 34 410 -408 c470 -467 455 -457 600 -449 69 4 91 9 138
36 l57 32 0 -148 c0 -184 -13 -235 -75 -297 -80 -80 34 -75 -1605 -75 -1639 0
-1525 -5 -1605 75 -81 80 -75 -57 -75 1796 l0 1648 398 3 399 3 49 30 c30 19
60 49 79 79 l30 49 3 399 3 398 1088 0 c958 0 1094 -2 1140 -16z m-1294 -1374
c390 -99 657 -444 658 -850 1 -233 -80 -436 -242 -604 -174 -180 -382 -269
-631 -269 -405 0 -745 263 -851 658 -31 113 -31 316 0 430 46 174 165 360 295
464 121 96 282 167 431 191 86 13 247 4 340 -20z m1012 -1852 c334 -335 383
-388 393 -425 27 -105 -41 -193 -151 -193 -46 0 -63 5 -95 29 -45 34 -760 749
-754 753 40 28 144 127 175 166 22 28 42 51 45 52 3 0 177 -172 387 -382z"/>
<path d="M2240 4240 l0 -80 160 0 160 0 0 80 0 80 -160 0 -160 0 0 -80z"/>
<path d="M2720 4240 l0 -80 560 0 560 0 0 80 0 80 -560 0 -560 0 0 -80z"/>
<path d="M2240 3920 l0 -80 800 0 800 0 0 80 0 80 -800 0 -800 0 0 -80z"/>
<path d="M1280 1200 l0 -80 320 0 320 0 0 80 0 80 -320 0 -320 0 0 -80z"/>
<path d="M2080 1200 l0 -80 80 0 80 0 0 80 0 80 -80 0 -80 0 0 -80z"/>
<path d="M2400 1200 l0 -80 160 0 160 0 0 80 0 80 -160 0 -160 0 0 -80z"/>
<path d="M2445 3280 c-235 -37 -442 -191 -545 -405 -52 -109 -70 -190 -70
-315 0 -125 18 -207 70 -315 73 -150 189 -267 335 -336 117 -56 191 -73 320
-73 289 0 529 153 656 419 140 295 58 654 -198 868 -67 56 -192 119 -279 141
-78 20 -213 27 -289 16z m249 -180 c109 -28 169 -63 257 -150 54 -53 85 -94
107 -141 47 -99 44 -106 -30 -68 -160 81 -356 139 -468 139 -112 0 -308 -58
-468 -139 -34 -17 -64 -31 -66 -31 -9 0 24 83 55 138 38 66 121 151 184 187
138 81 281 103 429 65z m-41 -413 c98 -74 82 -219 -29 -272 -107 -50 -235 43
-221 161 13 121 155 184 250 111z m-561 -308 c160 -81 356 -139 468 -139 112
0 308 58 468 139 74 37 77 31 30 -67 -45 -93 -159 -208 -251 -251 -262 -124
-564 -40 -718 201 -30 47 -74 148 -64 148 3 0 33 -14 67 -31z"/>
</g>
</svg>
